<?xml version="1.0" encoding="UTF-8" standalone="no"?>
<!DOCTYPE svg PUBLIC "-//W3C//DTD SVG 1.1//EN" "http://www.w3.org/Graphics/SVG/1.1/DTD/svg11.dtd">
<svg width="100%" height="100%" viewBox="0 0 4292 2848" version="1.1" xmlns="http://www.w3.org/2000/svg" xmlns:xlink="http://www.w3.org/1999/xlink" xml:space="preserve" xmlns:serif="http://www.serif.com/" style="fill-rule:evenodd;clip-rule:evenodd;stroke-linejoin:round;stroke-miterlimit:2;">
    <path d="M978.203,1988.79C978.203,2252.31 1192.15,2466.26 1455.67,2466.26C1719.2,2466.26 1933.15,2252.31 1933.15,1988.79L1933.15,1972.82C1933.15,1709.3 1719.2,1495.35 1455.67,1495.35C1192.15,1495.35 978.203,1709.3 978.203,1972.82L978.203,1988.79Z" style="fill-opacity:0;"/>
    <g>
        <clipPath id="_clip1">
            <path d="M978.203,1988.79C978.203,2252.31 1192.15,2466.26 1455.67,2466.26C1719.2,2466.26 1933.15,2252.31 1933.15,1988.79L1933.15,1972.82C1933.15,1709.3 1719.2,1495.35 1455.67,1495.35C1192.15,1495.35 978.203,1709.3 978.203,1972.82L978.203,1988.79Z"/>
        </clipPath>
        <g clip-path="url(#_clip1)">
            <g id="Clean" transform="matrix(1,0,0,1.72097,0,-616.975)">
                <rect x="978.203" y="855.757" width="954.943" height="970.914" style="fill:rgb(71,175,242);fill-opacity:0.45;"/>
            </g>
        </g>
    </g>
</svg>
