<?xml version="1.0" encoding="UTF-8" standalone="no"?>
<!DOCTYPE svg PUBLIC "-//W3C//DTD SVG 1.1//EN" "http://www.w3.org/Graphics/SVG/1.1/DTD/svg11.dtd">
<svg width="100%" height="100%" viewBox="0 0 245 215" version="1.1" xmlns="http://www.w3.org/2000/svg" xmlns:xlink="http://www.w3.org/1999/xlink" xml:space="preserve" xmlns:serif="http://www.serif.com/" style="fill-rule:evenodd;clip-rule:evenodd;stroke-linejoin:round;stroke-miterlimit:2;">
    <g transform="matrix(1,0,0,1,-237,-192.77)">
        <path d="M482,256.474C482,241.311 469.689,229 454.526,229L264.474,229C249.311,229 237,241.311 237,256.474L237,379.526C237,394.689 249.311,407 264.474,407L454.526,407C469.689,407 482,394.689 482,379.526L482,256.474Z" style="fill:rgb(243,243,243);"/>
        <g transform="matrix(1.2549,0,0,1,165.471,59)">
            <path d="M91.266,134C99.384,134 116.932,131.457 130.003,143.29C177.66,186.437 176.531,158.971 176.531,179C176.531,207.148 57,218.148 57,190C57,161.852 63.118,134 91.266,134Z" style="fill:rgb(243,243,243);"/>
        </g>
    </g>
    <g transform="matrix(1.19048,0,0,1.19048,-330.18,-260.782)">
        <circle cx="353.001" cy="318" r="41" style="fill:rgb(41,215,236);"/>
    </g>
    <g transform="matrix(1.19048,0,0,1.19048,-216.49,-350.068)">
        <rect x="253" y="393" width="100.001" height="60" style="fill:rgb(238,54,131);"/>
    </g>
    <g transform="matrix(1.19048,0,0,1.19048,-376.012,-295.901)">
        <path d="M443.5,300L473,359L414,359L443.5,300Z" style="fill:rgb(255,198,0);"/>
    </g>
</svg>
